<?xml version="1.0" standalone="no"?>
<!DOCTYPE svg PUBLIC "-//W3C//DTD SVG 20010904//EN"
 "http://www.w3.org/TR/2001/REC-SVG-20010904/DTD/svg10.dtd">
<svg version="1.0" xmlns="http://www.w3.org/2000/svg"
 width="640.000000pt" height="539.000000pt" viewBox="0 0 640.000000 539.000000"
 preserveAspectRatio="xMidYMid meet">

<g transform="translate(0.000000,539.000000) scale(0.100000,-0.100000)"
fill="#000000" stroke="none">
<path d="M3420 4505 c-8 -2 -49 -9 -90 -15 -72 -11 -208 -45 -217 -53 -2 -3
29 -24 69 -47 95 -56 241 -202 296 -296 98 -164 147 -376 111 -474 -7 -19 -39
-88 -71 -152 -343 -686 -958 -1099 -1725 -1159 -286 -22 -565 15 -855 113 -82
27 -152 47 -156 43 -10 -9 70 -159 133 -250 233 -335 608 -575 1005 -644 192
-33 291 -34 510 -6 38 4 32 1 -40 -25 -47 -17 -123 -40 -170 -51 -180 -43
-181 -43 -132 -77 94 -67 305 -150 462 -182 169 -34 430 -25 595 20 234 65
422 166 578 310 75 70 180 196 226 273 40 65 33 40 -15 -55 -61 -122 -135
-233 -228 -342 -42 -49 -73 -93 -69 -97 13 -13 208 10 323 37 314 74 533 196
761 424 191 190 304 373 389 627 48 144 60 228 67 443 8 236 -22 417 -99 620
-45 116 -163 323 -237 412 -159 196 -339 342 -550 448 -99 49 -285 113 -396
136 -73 14 -434 29 -475 19z m340 -1005 c150 -150 261 -332 330 -543 12 -37
20 -73 18 -79 -3 -7 -10 9 -17 36 -6 27 -14 46 -17 43 -3 -3 -81 54 -172 127
-92 72 -171 135 -177 138 -6 4 -9 -20 -8 -65 1 -66 0 -64 -8 23 -13 140 -54
328 -96 438 -9 23 65 -36 147 -118z m357 -662 c-3 -8 -6 -5 -6 6 -1 11 2 17 5
13 3 -3 4 -12 1 -19z m10 -50 c-3 -7 -5 -2 -5 12 0 14 2 19 5 13 2 -7 2 -19 0
-25z m10 -65 c-3 -10 -5 -4 -5 12 0 17 2 24 5 18 2 -7 2 -21 0 -30z m10 -85
c-3 -7 -5 -2 -5 12 0 14 2 19 5 13 2 -7 2 -19 0 -25z"/>
<path d="M2160 3607 c0 -9 -8 -31 -18 -49 -24 -43 -59 -151 -67 -205 -7 -52
-18 -50 163 -19 l133 22 -42 30 c-55 38 -113 111 -135 171 -20 54 -34 75 -34
50z"/>
</g>
</svg>
